<svg width="461" height="206" viewBox="0 0 461 206" fill="none" xmlns="http://www.w3.org/2000/svg">
<g clip-path="url(#clip0_318_10)">
<path d="M38.912 181.28C32.6827 181.28 27.2213 180.128 22.528 177.824C17.8347 175.435 14.1653 172.149 11.52 167.968C8.96 163.701 7.68 158.752 7.68 153.12V113.44C7.68 107.723 8.96 102.773 11.52 98.592C14.1653 94.4107 17.8347 91.168 22.528 88.864C27.2213 86.4747 32.6827 85.28 38.912 85.28C45.2267 85.28 50.688 86.4747 55.296 88.864C59.9893 91.168 63.616 94.4107 66.176 98.592C68.8213 102.773 70.144 107.723 70.144 113.44H50.944C50.944 109.685 49.8773 106.827 47.744 104.864C45.696 102.901 42.752 101.92 38.912 101.92C35.072 101.92 32.0853 102.901 29.952 104.864C27.904 106.827 26.88 109.685 26.88 113.44V153.12C26.88 156.789 27.904 159.648 29.952 161.696C32.0853 163.659 35.072 164.64 38.912 164.64C42.752 164.64 45.696 163.659 47.744 161.696C49.8773 159.648 50.944 156.789 50.944 153.12H70.144C70.144 158.752 68.8213 163.701 66.176 167.968C63.616 172.149 59.9893 175.435 55.296 177.824C50.688 180.128 45.2267 181.28 38.912 181.28ZM96.846 203.04L106.446 176.544L80.078 109.6H100.942L111.566 140.32C112.334 142.624 113.102 145.44 113.87 148.768C114.723 152.011 115.363 154.656 115.79 156.704C116.217 154.656 116.814 152.011 117.582 148.768C118.435 145.44 119.246 142.624 120.014 140.32L130.254 109.6H150.222L116.942 203.04H96.846ZM161.948 203.04V109.6H180.508V123.04H184.988L180.508 127.52C180.508 121.461 182.172 116.768 185.5 113.44C188.828 110.027 193.393 108.32 199.196 108.32C206.279 108.32 211.953 110.837 216.22 115.872C220.487 120.821 222.62 127.477 222.62 135.84V153.76C222.62 159.307 221.639 164.171 219.676 168.352C217.799 172.448 215.111 175.648 211.612 177.952C208.113 180.171 203.975 181.28 199.196 181.28C193.393 181.28 188.828 179.616 185.5 176.288C182.172 172.875 180.508 168.139 180.508 162.08L184.988 166.56H180.508L181.148 183.84V203.04H161.948ZM192.284 164.64C195.868 164.64 198.599 163.659 200.476 161.696C202.439 159.648 203.42 156.789 203.42 153.12V136.48C203.42 132.725 202.439 129.867 200.476 127.904C198.599 125.941 195.868 124.96 192.284 124.96C188.785 124.96 186.055 125.984 184.092 128.032C182.129 129.995 181.148 132.811 181.148 136.48V153.12C181.148 156.789 182.129 159.648 184.092 161.696C186.055 163.659 188.785 164.64 192.284 164.64ZM240.746 180V109.6H258.666V123.04H263.53L258.026 131.232C258.026 123.637 259.775 117.92 263.274 114.08C266.773 110.24 271.893 108.32 278.634 108.32C286.399 108.32 292.415 110.667 296.682 115.36C301.034 120.053 303.21 126.667 303.21 135.2V140.96H282.73V136.48C282.73 132.64 281.663 129.653 279.53 127.52C277.482 125.387 274.709 124.32 271.21 124.32C267.541 124.32 264.725 125.387 262.762 127.52C260.885 129.653 259.946 132.64 259.946 136.48V180H240.746ZM345.4 181.28C335.928 181.28 328.504 178.72 323.128 173.6C317.837 168.48 315.192 161.483 315.192 152.608V109.6H334.392V152.48C334.392 156.405 335.331 159.435 337.208 161.568C339.085 163.616 341.816 164.64 345.4 164.64C348.899 164.64 351.587 163.616 353.464 161.568C355.427 159.435 356.408 156.405 356.408 152.48V109.6H375.608V152.608C375.608 161.568 372.92 168.608 367.544 173.728C362.168 178.763 354.787 181.28 345.4 181.28ZM386.31 180L411.398 131.744L387.974 86.56H409.094L418.822 107.04C419.761 108.917 420.529 110.624 421.126 112.16C421.809 113.696 422.235 114.805 422.406 115.488C422.577 114.805 422.961 113.696 423.558 112.16C424.155 110.624 424.881 108.917 425.734 107.04L435.718 86.56H456.326L432.902 131.744L457.99 180H436.87L425.606 156.96C424.753 155.083 423.985 153.333 423.302 151.712C422.619 150.091 422.107 148.853 421.766 148C421.51 148.853 421.083 150.091 420.486 151.712C419.889 153.333 419.121 155.083 418.182 156.96L406.918 180H386.31Z" fill="black"/>
<rect x="132" y="2" width="196" height="80" rx="39" fill="#FDB813"/>
<path d="M167.4 65V27.24H155.56V18.28H188.84V27.24H177V65H167.4ZM192.975 65L204.431 18.28H216.591L228.175 65H218.383L216.143 54.44H205.007L202.767 65H192.975ZM206.607 46.76H214.479L212.239 35.496C211.94 33.8747 211.62 32.2747 211.279 30.696C210.98 29.0747 210.746 27.816 210.575 26.92C210.404 27.816 210.17 29.0533 209.871 30.632C209.615 32.2107 209.316 33.8107 208.975 35.432L206.607 46.76ZM231.03 65L243.574 40.872L231.862 18.28H242.422L247.286 28.52C247.755 29.4587 248.139 30.312 248.438 31.08C248.779 31.848 248.993 32.4027 249.078 32.744C249.163 32.4027 249.355 31.848 249.654 31.08C249.953 30.312 250.315 29.4587 250.742 28.52L255.734 18.28H266.038L254.326 40.872L266.87 65H256.31L250.678 53.48C250.251 52.5413 249.867 51.6667 249.526 50.856C249.185 50.0453 248.929 49.4267 248.758 49C248.63 49.4267 248.417 50.0453 248.118 50.856C247.819 51.6667 247.435 52.5413 246.966 53.48L241.334 65H231.03ZM273.245 65V56.68H282.525V26.6H273.245V18.28H301.405V26.6H292.125V56.68H301.405V65H273.245Z" fill="black"/>
</g>
<defs>
<clipPath id="clip0_318_10">
<rect width="461" height="206" fill="white"/>
</clipPath>
</defs>
</svg>
